<svg xmlns="http://www.w3.org/2000/svg" xmlns:xlink="http://www.w3.org/1999/xlink" width="1155" zoomAndPan="magnify" viewBox="0 0 866.25 380.999991" height="508" preserveAspectRatio="xMidYMid meet" version="1.2"><g id="98042c9c82"><path style=" stroke:none;fill-rule:nonzero;fill:#ffffff;fill-opacity:1;" d="M 271.167969 194.71875 C 270.203125 242.597656 267.433594 280.363281 246.679688 300.132812 C 226.925781 320.902344 189.183594 323.671875 141.335938 324.636719 C 93.488281 323.671875 55.746094 320.902344 35.992188 300.132812 C 15.234375 280.363281 12.46875 242.597656 11.503906 194.71875 C 12.46875 146.839844 15.234375 109.070312 35.992188 89.304688 C 55.746094 68.535156 93.488281 65.765625 141.335938 64.800781 C 189.183594 65.765625 226.925781 68.535156 246.679688 89.304688 C 267.433594 109.070312 270.203125 146.839844 271.167969 194.71875 Z M 271.167969 194.71875 "/><path style=" stroke:none;fill-rule:nonzero;fill:#13155b;fill-opacity:1;" d="M 175.011719 178.722656 L 175.011719 228.910156 C 175.011719 233.820312 171.035156 237.800781 166.128906 237.800781 C 161.226562 237.800781 157.25 233.820312 157.25 228.910156 L 156.90625 178.722656 L 116.46875 219.527344 L 116.46875 228.414062 C 116.46875 255.859375 138.703125 278.109375 166.128906 278.109375 C 193.554688 278.109375 215.789062 255.859375 215.789062 228.414062 L 215.789062 178.722656 Z M 175.011719 178.722656 "/><path style=" stroke:none;fill-rule:nonzero;fill:#e89600;fill-opacity:1;" d="M 106.40625 178.730469 C 101.503906 178.730469 97.527344 174.753906 97.527344 169.84375 C 97.527344 164.9375 101.503906 160.957031 106.40625 160.957031 L 156.5625 160.957031 L 156.5625 120.152344 L 106.902344 120.152344 C 79.476562 120.152344 57.242188 142.398438 57.242188 169.84375 C 57.242188 197.289062 79.476562 219.539062 106.902344 219.539062 L 116.460938 219.539062 L 156.898438 178.730469 L 106.398438 178.730469 Z M 106.40625 178.730469 "/><path style=" stroke:none;fill-rule:nonzero;fill:#ffffff;fill-opacity:1;" d="M 351.679688 278.640625 C 339.050781 278.640625 326.832031 268.355469 326.832031 253.632812 C 326.832031 238.910156 339.050781 228.625 351.679688 228.625 C 357.855469 228.625 363.410156 230.707031 367.785156 234.386719 L 364.242188 238.421875 C 360.839844 235.714844 356.46875 234.117188 352.09375 234.117188 C 342.167969 234.117188 332.792969 242.175781 332.792969 253.640625 C 332.792969 265.109375 342.160156 273.164062 352.09375 273.164062 C 356.539062 273.164062 360.984375 271.496094 364.382812 268.71875 L 367.992188 272.742188 C 363.546875 276.566406 357.929688 278.640625 351.679688 278.640625 Z M 351.679688 278.640625 "/><path style=" stroke:none;fill-rule:nonzero;fill:#ffffff;fill-opacity:1;" d="M 405.992188 277.945312 L 393.703125 260.445312 L 382.316406 260.445312 L 382.316406 277.945312 L 376.554688 277.945312 L 376.554688 229.316406 L 392.386719 229.316406 C 403.289062 229.316406 409.601562 235.984375 409.601562 245.015625 C 409.601562 251.964844 405.847656 257.386719 399.1875 259.460938 L 412.234375 277.9375 L 405.984375 277.9375 Z M 382.316406 255.300781 L 392.246094 255.300781 C 399.257812 255.300781 403.839844 251.691406 403.839844 245.015625 C 403.839844 238.339844 399.257812 234.730469 392.246094 234.730469 L 382.316406 234.730469 Z M 382.316406 255.300781 "/><path style=" stroke:none;fill-rule:nonzero;fill:#ffffff;fill-opacity:1;" d="M 450.15625 272.523438 L 450.15625 277.945312 L 421.277344 277.945312 L 421.277344 229.316406 L 449.53125 229.316406 L 449.53125 234.742188 L 427.039062 234.742188 L 427.039062 250.855469 L 444.527344 250.855469 L 444.527344 256.132812 L 427.039062 256.132812 L 427.039062 272.523438 Z M 450.15625 272.523438 "/><path style=" stroke:none;fill-rule:nonzero;fill:#ffffff;fill-opacity:1;" d="M 498.011719 253.632812 C 498.011719 267.175781 487.597656 277.945312 473.433594 277.945312 L 459 277.945312 L 459 229.316406 L 473.433594 229.316406 C 487.597656 229.316406 498.011719 240.082031 498.011719 253.632812 Z M 492.105469 253.632812 C 492.105469 243.210938 484.957031 234.804688 473.363281 234.804688 L 464.75 234.804688 L 464.75 272.453125 L 473.363281 272.453125 C 484.957031 272.453125 492.105469 264.042969 492.105469 253.625 Z M 492.105469 253.632812 "/><path style=" stroke:none;fill-rule:nonzero;fill:#ffffff;fill-opacity:1;" d="M 508.378906 229.316406 L 514.140625 229.316406 L 514.140625 277.945312 L 508.378906 277.945312 Z M 508.378906 229.316406 "/><path style=" stroke:none;fill-rule:nonzero;fill:#ffffff;fill-opacity:1;" d="M 555.507812 234.742188 L 542.039062 234.742188 L 542.039062 277.945312 L 536.277344 277.945312 L 536.277344 234.742188 L 522.742188 234.742188 L 522.742188 229.316406 L 555.507812 229.316406 Z M 555.507812 234.742188 "/><path style=" stroke:none;fill-rule:nonzero;fill:#ffffff;fill-opacity:1;" d="M 621.804688 229.316406 L 621.804688 260.019531 C 621.804688 272.109375 614.09375 278.632812 604.167969 278.632812 C 594.242188 278.632812 586.53125 272.101562 586.53125 260.019531 L 586.53125 229.316406 L 592.292969 229.316406 L 592.292969 259.957031 C 592.292969 269.125 597.710938 273.15625 604.167969 273.15625 C 610.625 273.15625 616.042969 269.125 616.042969 259.957031 L 616.042969 229.316406 Z M 621.804688 229.316406 "/><path style=" stroke:none;fill-rule:nonzero;fill:#ffffff;fill-opacity:1;" d="M 634.226562 229.316406 L 639.988281 229.316406 L 667.832031 268.222656 L 668.316406 268.222656 L 668.316406 229.316406 L 674.078125 229.316406 L 674.078125 277.945312 L 668.316406 277.945312 L 640.476562 239.042969 L 639.988281 239.042969 L 639.988281 277.945312 L 634.226562 277.945312 Z M 634.226562 229.316406 "/><path style=" stroke:none;fill-rule:nonzero;fill:#ffffff;fill-opacity:1;" d="M 686.601562 229.316406 L 692.363281 229.316406 L 692.363281 277.945312 L 686.601562 277.945312 Z M 686.601562 229.316406 "/><path style=" stroke:none;fill-rule:nonzero;fill:#ffffff;fill-opacity:1;" d="M 752.472656 253.632812 C 752.472656 268.5 740.257812 278.640625 727.625 278.640625 C 714.992188 278.640625 702.777344 268.5 702.777344 253.632812 C 702.777344 238.765625 714.921875 228.625 727.625 228.625 C 740.328125 228.625 752.472656 238.765625 752.472656 253.632812 Z M 746.503906 253.632812 C 746.503906 242.03125 737.136719 234.109375 727.625 234.109375 C 718.113281 234.109375 708.746094 242.03125 708.746094 253.632812 C 708.746094 265.234375 718.050781 273.15625 727.625 273.15625 C 737.199219 273.15625 746.503906 265.234375 746.503906 253.632812 Z M 746.503906 253.632812 "/><path style=" stroke:none;fill-rule:nonzero;fill:#ffffff;fill-opacity:1;" d="M 762.921875 229.316406 L 768.683594 229.316406 L 796.527344 268.222656 L 797.011719 268.222656 L 797.011719 229.316406 L 802.773438 229.316406 L 802.773438 277.945312 L 797.011719 277.945312 L 769.171875 239.042969 L 768.683594 239.042969 L 768.683594 277.945312 L 762.921875 277.945312 Z M 762.921875 229.316406 "/><path style=" stroke:none;fill-rule:nonzero;fill:#ffffff;fill-opacity:1;" d="M 374.589844 179.445312 L 374.589844 195.195312 L 326.933594 195.195312 L 326.933594 120.671875 L 373.636719 120.671875 L 373.636719 136.425781 L 344.0625 136.425781 L 344.0625 149.949219 L 366.1875 149.949219 L 366.1875 165.386719 L 344.0625 165.386719 L 344.0625 179.445312 L 374.601562 179.445312 Z M 374.589844 179.445312 "/><path style=" stroke:none;fill-rule:nonzero;fill:#ffffff;fill-opacity:1;" d="M 382.144531 167.527344 C 382.144531 147.832031 397.039062 138.78125 409.167969 138.78125 C 418.527344 138.78125 423.214844 144.105469 424.378906 146.015625 L 425.125 146.015625 L 425.125 139.847656 L 441.933594 139.847656 L 441.933594 195.207031 L 425.125 195.207031 L 425.125 189.035156 L 424.378906 189.035156 C 423.207031 190.945312 418.527344 196.269531 409.167969 196.269531 C 397.039062 196.269531 382.144531 187.222656 382.144531 167.527344 Z M 425.441406 167.527344 C 425.441406 158.367188 418.742188 153.578125 411.828125 153.578125 C 404.910156 153.578125 398.3125 158.367188 398.3125 167.527344 C 398.3125 176.683594 404.804688 181.472656 411.828125 181.472656 C 418.851562 181.472656 425.441406 176.683594 425.441406 167.527344 Z M 425.441406 167.527344 "/><path style=" stroke:none;fill-rule:nonzero;fill:#ffffff;fill-opacity:1;" d="M 472.894531 152.089844 C 470.65625 152.089844 468.320312 153.261719 468.320312 155.5 C 468.320312 157.410156 469.703125 158.691406 472.152344 159.542969 L 479.175781 161.984375 C 487.046875 164.863281 494.820312 168.058594 494.820312 178.597656 C 494.820312 189.980469 484.714844 196.269531 472.371094 196.269531 C 460.027344 196.269531 452.371094 190.304688 450.027344 180.515625 L 463.21875 176.367188 C 464.597656 179.453125 467.257812 182.972656 472.371094 182.972656 C 476.203125 182.972656 478.4375 180.625 478.4375 178.820312 C 478.4375 177.648438 477.480469 176.160156 474.824219 175.09375 L 468.332031 172.75 C 457.269531 168.707031 452.058594 163.058594 452.058594 155.292969 C 452.058594 144.863281 461.632812 138.789062 472.164062 138.789062 C 482.695312 138.789062 490.03125 144.644531 493.222656 153.476562 L 479.078125 157.203125 C 477.589844 153.371094 475.355469 152.097656 472.910156 152.097656 Z M 472.894531 152.089844 "/><path style=" stroke:none;fill-rule:nonzero;fill:#ffffff;fill-opacity:1;" d="M 535.664062 179.867188 L 535.664062 193.492188 C 533.320312 194.773438 529.386719 195.835938 524.175781 195.835938 C 514.285156 195.835938 506.9375 192.75 506.9375 179.226562 L 506.9375 153.675781 L 499.175781 153.675781 L 499.175781 139.835938 L 506.9375 139.835938 L 506.9375 125.679688 L 523.742188 125.679688 L 523.742188 139.835938 L 535.554688 139.835938 L 535.554688 153.675781 L 523.742188 153.675781 L 523.742188 175.816406 C 523.742188 178.261719 524.277344 181.03125 529.0625 181.03125 C 531.507812 181.03125 533.320312 180.609375 535.664062 179.859375 Z M 535.664062 179.867188 "/><path style=" stroke:none;fill-rule:nonzero;fill:#ffffff;fill-opacity:1;" d="M 608.117188 196.269531 C 587.054688 196.269531 569.175781 180.617188 569.175781 157.945312 C 569.175781 135.273438 587.046875 119.617188 608.117188 119.617188 C 618.117188 119.617188 626.734375 122.8125 633.226562 128.449219 L 622.902344 140.054688 C 619.179688 137.5 614.175781 135.6875 609.179688 135.6875 C 596.097656 135.6875 587.054688 145.050781 587.054688 157.933594 C 587.054688 170.820312 596.097656 180.183594 609.179688 180.183594 C 614.390625 180.183594 619.710938 178.164062 623.433594 175.175781 L 633.648438 187.203125 C 626.953125 193.167969 618.222656 196.253906 608.117188 196.253906 Z M 608.117188 196.269531 "/><path style=" stroke:none;fill-rule:nonzero;fill:#ffffff;fill-opacity:1;" d="M 694.5 167.734375 C 694.5 187.210938 677.902344 196.261719 665.242188 196.261719 C 652.582031 196.261719 635.984375 187.210938 635.984375 167.734375 C 635.984375 148.253906 652.582031 138.78125 665.242188 138.78125 C 677.902344 138.78125 694.5 148.253906 694.5 167.734375 Z M 652.160156 167.734375 C 652.160156 176.566406 658.761719 181.464844 665.242188 181.464844 C 671.726562 181.464844 678.226562 176.566406 678.226562 167.734375 C 678.226562 158.902344 671.734375 153.578125 665.242188 153.578125 C 658.75 153.578125 652.160156 158.476562 652.160156 167.734375 Z M 652.160156 167.734375 "/><path style=" stroke:none;fill-rule:nonzero;fill:#ffffff;fill-opacity:1;" d="M 700.035156 167.527344 C 700.035156 147.832031 714.929688 138.78125 727.058594 138.78125 C 736.414062 138.78125 741.105469 144.105469 742.265625 146.015625 L 743.015625 146.015625 L 743.015625 139.847656 L 759.820312 139.847656 L 759.820312 195.207031 L 743.015625 195.207031 L 743.015625 189.035156 L 742.265625 189.035156 C 741.09375 190.945312 736.414062 196.269531 727.058594 196.269531 C 714.929688 196.269531 700.035156 187.222656 700.035156 167.527344 Z M 743.332031 167.527344 C 743.332031 158.367188 736.632812 153.578125 729.714844 153.578125 C 722.800781 153.578125 716.203125 158.367188 716.203125 167.527344 C 716.203125 176.683594 722.691406 181.472656 729.714844 181.472656 C 736.742188 181.472656 743.332031 176.683594 743.332031 167.527344 Z M 743.332031 167.527344 "/><path style=" stroke:none;fill-rule:nonzero;fill:#ffffff;fill-opacity:1;" d="M 790.78125 152.089844 C 788.546875 152.089844 786.210938 153.261719 786.210938 155.5 C 786.210938 157.410156 787.589844 158.691406 790.042969 159.542969 L 797.066406 161.984375 C 804.9375 164.863281 812.699219 168.058594 812.699219 178.597656 C 812.699219 189.980469 802.59375 196.269531 790.25 196.269531 C 777.90625 196.269531 770.253906 190.304688 767.910156 180.515625 L 781.097656 176.367188 C 782.480469 179.453125 785.136719 182.972656 790.25 182.972656 C 794.082031 182.972656 796.320312 180.625 796.320312 178.820312 C 796.320312 177.648438 795.363281 176.160156 792.703125 175.09375 L 786.210938 172.75 C 775.148438 168.707031 769.9375 163.058594 769.9375 155.292969 C 769.9375 144.863281 779.511719 138.789062 790.042969 138.789062 C 800.574219 138.789062 807.914062 144.644531 811.105469 153.476562 L 796.957031 157.203125 C 795.472656 153.371094 793.234375 152.097656 790.792969 152.097656 Z M 790.78125 152.089844 "/><path style=" stroke:none;fill-rule:nonzero;fill:#ffffff;fill-opacity:1;" d="M 853.550781 179.867188 L 853.550781 193.492188 C 851.207031 194.773438 847.277344 195.835938 842.066406 195.835938 C 832.175781 195.835938 824.828125 192.75 824.828125 179.226562 L 824.828125 153.675781 L 817.066406 153.675781 L 817.066406 139.835938 L 824.828125 139.835938 L 824.828125 125.679688 L 841.632812 125.679688 L 841.632812 139.835938 L 853.445312 139.835938 L 853.445312 153.675781 L 841.632812 153.675781 L 841.632812 175.816406 C 841.632812 178.261719 842.164062 181.03125 846.953125 181.03125 C 849.394531 181.03125 851.207031 180.609375 853.550781 179.859375 Z M 853.550781 179.867188 "/></g></svg>