<svg xmlns="http://www.w3.org/2000/svg" xmlns:xlink="http://www.w3.org/1999/xlink" width="1155" zoomAndPan="magnify" viewBox="0 0 866.25 380.999991" height="508" preserveAspectRatio="xMidYMid meet" version="1.2"><g id="a0f448c238"><path style=" stroke:none;fill-rule:nonzero;fill:#ffffff;fill-opacity:1;" d="M 298.539062 190.429688 C 297.738281 230.171875 295.4375 261.519531 278.191406 277.929688 C 261.777344 295.167969 230.417969 297.46875 190.660156 298.269531 C 150.902344 297.46875 119.539062 295.167969 103.125 277.929688 C 85.878906 261.519531 83.582031 230.171875 82.777344 190.429688 C 83.582031 150.683594 85.878906 119.335938 103.125 102.929688 C 119.539062 85.6875 150.902344 83.390625 190.660156 82.589844 C 230.417969 83.390625 261.777344 85.6875 278.191406 102.929688 C 295.4375 119.335938 297.738281 150.683594 298.539062 190.429688 Z M 298.539062 190.429688 "/><path style=" stroke:none;fill-rule:nonzero;fill:#13155b;fill-opacity:1;" d="M 218.640625 177.152344 L 218.640625 218.8125 C 218.640625 222.886719 215.335938 226.1875 211.261719 226.1875 C 207.1875 226.1875 203.882812 222.886719 203.882812 218.8125 L 203.597656 177.152344 L 169.996094 211.023438 L 169.996094 218.398438 C 169.996094 241.179688 188.472656 259.648438 211.261719 259.648438 C 234.050781 259.648438 252.527344 241.179688 252.527344 218.398438 L 252.527344 177.152344 Z M 218.640625 177.152344 "/><path style=" stroke:none;fill-rule:nonzero;fill:#e89600;fill-opacity:1;" d="M 161.636719 177.160156 C 157.5625 177.160156 154.257812 173.855469 154.257812 169.78125 C 154.257812 165.707031 157.5625 162.40625 161.636719 162.40625 L 203.3125 162.40625 L 203.3125 128.53125 L 162.046875 128.53125 C 139.257812 128.53125 120.785156 147 120.785156 169.78125 C 120.785156 192.5625 139.257812 211.03125 162.046875 211.03125 L 169.988281 211.03125 L 203.589844 177.160156 L 161.628906 177.160156 Z M 161.636719 177.160156 "/><path style=" stroke:none;fill-rule:nonzero;fill:#ffffff;fill-opacity:1;" d="M 365.441406 260.089844 C 354.945312 260.089844 344.792969 251.554688 344.792969 239.332031 C 344.792969 227.109375 354.945312 218.570312 365.441406 218.570312 C 370.574219 218.570312 375.1875 220.300781 378.820312 223.359375 L 375.878906 226.707031 C 373.050781 224.457031 369.417969 223.132812 365.785156 223.132812 C 357.539062 223.132812 349.746094 229.820312 349.746094 239.339844 C 349.746094 248.859375 357.53125 255.546875 365.785156 255.546875 C 369.480469 255.546875 373.171875 254.160156 375.996094 251.851562 L 378.992188 255.191406 C 375.300781 258.367188 370.632812 260.089844 365.441406 260.089844 Z M 365.441406 260.089844 "/><path style=" stroke:none;fill-rule:nonzero;fill:#ffffff;fill-opacity:1;" d="M 410.570312 259.515625 L 400.359375 244.984375 L 390.898438 244.984375 L 390.898438 259.515625 L 386.109375 259.515625 L 386.109375 219.148438 L 399.265625 219.148438 C 408.324219 219.148438 413.566406 224.683594 413.566406 232.179688 C 413.566406 237.945312 410.453125 242.445312 404.914062 244.167969 L 415.753906 259.507812 L 410.5625 259.507812 Z M 390.898438 240.71875 L 399.144531 240.71875 C 404.976562 240.71875 408.78125 237.722656 408.78125 232.179688 C 408.78125 226.636719 404.976562 223.640625 399.144531 223.640625 L 390.898438 223.640625 Z M 390.898438 240.71875 "/><path style=" stroke:none;fill-rule:nonzero;fill:#ffffff;fill-opacity:1;" d="M 447.265625 255.011719 L 447.265625 259.515625 L 423.269531 259.515625 L 423.269531 219.148438 L 446.75 219.148438 L 446.75 223.648438 L 428.058594 223.648438 L 428.058594 237.023438 L 442.589844 237.023438 L 442.589844 241.40625 L 428.058594 241.40625 L 428.058594 255.011719 Z M 447.265625 255.011719 "/><path style=" stroke:none;fill-rule:nonzero;fill:#ffffff;fill-opacity:1;" d="M 487.03125 239.332031 C 487.03125 250.574219 478.378906 259.515625 466.609375 259.515625 L 454.613281 259.515625 L 454.613281 219.148438 L 466.609375 219.148438 C 478.378906 219.148438 487.03125 228.082031 487.03125 239.332031 Z M 482.125 239.332031 C 482.125 230.683594 476.183594 223.703125 466.550781 223.703125 L 459.394531 223.703125 L 459.394531 254.953125 L 466.550781 254.953125 C 476.183594 254.953125 482.125 247.972656 482.125 239.324219 Z M 482.125 239.332031 "/><path style=" stroke:none;fill-rule:nonzero;fill:#ffffff;fill-opacity:1;" d="M 495.648438 219.148438 L 500.433594 219.148438 L 500.433594 259.515625 L 495.648438 259.515625 Z M 495.648438 219.148438 "/><path style=" stroke:none;fill-rule:nonzero;fill:#ffffff;fill-opacity:1;" d="M 534.804688 223.648438 L 523.613281 223.648438 L 523.613281 259.515625 L 518.828125 259.515625 L 518.828125 223.648438 L 507.582031 223.648438 L 507.582031 219.148438 L 534.804688 219.148438 Z M 534.804688 223.648438 "/><path style=" stroke:none;fill-rule:nonzero;fill:#ffffff;fill-opacity:1;" d="M 589.890625 219.148438 L 589.890625 244.632812 C 589.890625 254.667969 583.488281 260.082031 575.238281 260.082031 C 566.992188 260.082031 560.585938 254.660156 560.585938 244.632812 L 560.585938 219.148438 L 565.371094 219.148438 L 565.371094 244.582031 C 565.371094 252.191406 569.875 255.539062 575.238281 255.539062 C 580.601562 255.539062 585.105469 252.191406 585.105469 244.582031 L 585.105469 219.148438 Z M 589.890625 219.148438 "/><path style=" stroke:none;fill-rule:nonzero;fill:#ffffff;fill-opacity:1;" d="M 600.214844 219.148438 L 605.003906 219.148438 L 628.136719 251.441406 L 628.542969 251.441406 L 628.542969 219.148438 L 633.328125 219.148438 L 633.328125 259.515625 L 628.542969 259.515625 L 605.40625 227.222656 L 605.003906 227.222656 L 605.003906 259.515625 L 600.214844 259.515625 Z M 600.214844 219.148438 "/><path style=" stroke:none;fill-rule:nonzero;fill:#ffffff;fill-opacity:1;" d="M 643.734375 219.148438 L 648.523438 219.148438 L 648.523438 259.515625 L 643.734375 259.515625 Z M 643.734375 219.148438 "/><path style=" stroke:none;fill-rule:nonzero;fill:#ffffff;fill-opacity:1;" d="M 698.46875 239.332031 C 698.46875 251.671875 688.320312 260.089844 677.824219 260.089844 C 667.328125 260.089844 657.175781 251.671875 657.175781 239.332031 C 657.175781 226.988281 667.265625 218.570312 677.824219 218.570312 C 688.378906 218.570312 698.46875 226.988281 698.46875 239.332031 Z M 693.511719 239.332031 C 693.511719 229.699219 685.726562 223.125 677.824219 223.125 C 669.917969 223.125 662.136719 229.699219 662.136719 239.332031 C 662.136719 248.960938 669.867188 255.539062 677.824219 255.539062 C 685.777344 255.539062 693.511719 248.960938 693.511719 239.332031 Z M 693.511719 239.332031 "/><path style=" stroke:none;fill-rule:nonzero;fill:#ffffff;fill-opacity:1;" d="M 707.152344 219.148438 L 711.941406 219.148438 L 735.074219 251.441406 L 735.480469 251.441406 L 735.480469 219.148438 L 740.265625 219.148438 L 740.265625 259.515625 L 735.480469 259.515625 L 712.34375 227.222656 L 711.941406 227.222656 L 711.941406 259.515625 L 707.152344 259.515625 Z M 707.152344 219.148438 "/><path style=" stroke:none;fill-rule:nonzero;fill:#ffffff;fill-opacity:1;" d="M 384.476562 177.75 L 384.476562 190.824219 L 344.875 190.824219 L 344.875 128.96875 L 383.683594 128.96875 L 383.683594 142.042969 L 359.109375 142.042969 L 359.109375 153.269531 L 377.496094 153.269531 L 377.496094 166.082031 L 359.109375 166.082031 L 359.109375 177.75 L 384.484375 177.75 Z M 384.476562 177.75 "/><path style=" stroke:none;fill-rule:nonzero;fill:#ffffff;fill-opacity:1;" d="M 390.753906 167.855469 C 390.753906 151.507812 403.132812 143.996094 413.207031 143.996094 C 420.984375 143.996094 424.878906 148.414062 425.847656 150.003906 L 426.46875 150.003906 L 426.46875 144.882812 L 440.433594 144.882812 L 440.433594 190.832031 L 426.46875 190.832031 L 426.46875 185.710938 L 425.847656 185.710938 C 424.871094 187.296875 420.984375 191.71875 413.207031 191.71875 C 403.132812 191.71875 390.753906 184.207031 390.753906 167.855469 Z M 426.730469 167.855469 C 426.730469 160.253906 421.164062 156.277344 415.417969 156.277344 C 409.671875 156.277344 404.1875 160.253906 404.1875 167.855469 C 404.1875 175.457031 409.582031 179.433594 415.417969 179.433594 C 421.253906 179.433594 426.730469 175.457031 426.730469 167.855469 Z M 426.730469 167.855469 "/><path style=" stroke:none;fill-rule:nonzero;fill:#ffffff;fill-opacity:1;" d="M 466.160156 155.042969 C 464.300781 155.042969 462.359375 156.015625 462.359375 157.875 C 462.359375 159.460938 463.507812 160.527344 465.546875 161.230469 L 471.382812 163.257812 C 477.921875 165.648438 484.378906 168.300781 484.378906 177.046875 C 484.378906 186.496094 475.980469 191.71875 465.726562 191.71875 C 455.46875 191.71875 449.109375 186.765625 447.160156 178.640625 L 458.121094 175.195312 C 459.265625 177.757812 461.476562 180.679688 465.726562 180.679688 C 468.910156 180.679688 470.765625 178.730469 470.765625 177.234375 C 470.765625 176.257812 469.972656 175.023438 467.761719 174.140625 L 462.367188 172.191406 C 453.175781 168.839844 448.847656 164.148438 448.847656 157.703125 C 448.847656 149.042969 456.800781 144.003906 465.550781 144.003906 C 474.304688 144.003906 480.402344 148.863281 483.054688 156.195312 L 471.296875 159.289062 C 470.0625 156.105469 468.203125 155.050781 466.175781 155.050781 Z M 466.160156 155.042969 "/><path style=" stroke:none;fill-rule:nonzero;fill:#ffffff;fill-opacity:1;" d="M 518.316406 178.101562 L 518.316406 189.410156 C 516.367188 190.472656 513.101562 191.359375 508.773438 191.359375 C 500.554688 191.359375 494.449219 188.796875 494.449219 177.570312 L 494.449219 156.363281 L 487.996094 156.363281 L 487.996094 144.875 L 494.449219 144.875 L 494.449219 133.125 L 508.414062 133.125 L 508.414062 144.875 L 518.226562 144.875 L 518.226562 156.363281 L 508.414062 156.363281 L 508.414062 174.738281 C 508.414062 176.769531 508.855469 179.066406 512.832031 179.066406 C 514.863281 179.066406 516.367188 178.714844 518.316406 178.09375 Z M 518.316406 178.101562 "/><path style=" stroke:none;fill-rule:nonzero;fill:#ffffff;fill-opacity:1;" d="M 578.519531 191.71875 C 561.019531 191.71875 546.164062 178.722656 546.164062 159.902344 C 546.164062 141.085938 561.011719 128.089844 578.519531 128.089844 C 586.828125 128.089844 593.992188 130.742188 599.382812 135.421875 L 590.804688 145.054688 C 587.710938 142.933594 583.554688 141.429688 579.402344 141.429688 C 568.535156 141.429688 561.019531 149.203125 561.019531 159.894531 C 561.019531 170.589844 568.535156 178.363281 579.402344 178.363281 C 583.734375 178.363281 588.15625 176.6875 591.25 174.207031 L 599.738281 184.191406 C 594.171875 189.140625 586.917969 191.703125 578.519531 191.703125 Z M 578.519531 191.71875 "/><path style=" stroke:none;fill-rule:nonzero;fill:#ffffff;fill-opacity:1;" d="M 650.296875 168.03125 C 650.296875 184.199219 636.507812 191.710938 625.988281 191.710938 C 615.46875 191.710938 601.675781 184.199219 601.675781 168.03125 C 601.675781 151.859375 615.46875 143.996094 625.988281 143.996094 C 636.507812 143.996094 650.296875 151.859375 650.296875 168.03125 Z M 615.117188 168.03125 C 615.117188 175.359375 620.601562 179.425781 625.988281 179.425781 C 631.375 179.425781 636.777344 175.359375 636.777344 168.03125 C 636.777344 160.699219 631.382812 156.277344 625.988281 156.277344 C 620.59375 156.277344 615.117188 160.347656 615.117188 168.03125 Z M 615.117188 168.03125 "/><path style=" stroke:none;fill-rule:nonzero;fill:#ffffff;fill-opacity:1;" d="M 654.898438 167.855469 C 654.898438 151.507812 667.273438 143.996094 677.351562 143.996094 C 685.128906 143.996094 689.023438 148.414062 689.988281 150.003906 L 690.609375 150.003906 L 690.609375 144.882812 L 704.574219 144.882812 L 704.574219 190.832031 L 690.609375 190.832031 L 690.609375 185.710938 L 689.988281 185.710938 C 689.015625 187.296875 685.128906 191.71875 677.351562 191.71875 C 667.273438 191.71875 654.898438 184.207031 654.898438 167.855469 Z M 690.875 167.855469 C 690.875 160.253906 685.308594 156.277344 679.5625 156.277344 C 673.816406 156.277344 668.332031 160.253906 668.332031 167.855469 C 668.332031 175.457031 673.726562 179.433594 679.5625 179.433594 C 685.398438 179.433594 690.875 175.457031 690.875 167.855469 Z M 690.875 167.855469 "/><path style=" stroke:none;fill-rule:nonzero;fill:#ffffff;fill-opacity:1;" d="M 730.300781 155.042969 C 728.445312 155.042969 726.503906 156.015625 726.503906 157.875 C 726.503906 159.460938 727.648438 160.527344 729.6875 161.230469 L 735.523438 163.257812 C 742.0625 165.648438 748.515625 168.300781 748.515625 177.046875 C 748.515625 186.496094 740.117188 191.71875 729.859375 191.71875 C 719.605469 191.71875 713.242188 186.765625 711.296875 178.640625 L 722.257812 175.195312 C 723.402344 177.757812 725.613281 180.679688 729.859375 180.679688 C 733.042969 180.679688 734.902344 178.730469 734.902344 177.234375 C 734.902344 176.257812 734.109375 175.023438 731.898438 174.140625 L 726.503906 172.191406 C 717.3125 168.839844 712.980469 164.148438 712.980469 157.703125 C 712.980469 149.042969 720.9375 144.003906 729.6875 144.003906 C 738.4375 144.003906 744.535156 148.863281 747.1875 156.195312 L 735.433594 159.289062 C 734.199219 156.105469 732.339844 155.050781 730.308594 155.050781 Z M 730.300781 155.042969 "/><path style=" stroke:none;fill-rule:nonzero;fill:#ffffff;fill-opacity:1;" d="M 782.460938 178.101562 L 782.460938 189.410156 C 780.511719 190.472656 777.246094 191.359375 772.914062 191.359375 C 764.695312 191.359375 758.589844 188.796875 758.589844 177.570312 L 758.589844 156.363281 L 752.140625 156.363281 L 752.140625 144.875 L 758.589844 144.875 L 758.589844 133.125 L 772.554688 133.125 L 772.554688 144.875 L 782.371094 144.875 L 782.371094 156.363281 L 772.554688 156.363281 L 772.554688 174.738281 C 772.554688 176.769531 772.996094 179.066406 776.976562 179.066406 C 779.003906 179.066406 780.511719 178.714844 782.460938 178.09375 Z M 782.460938 178.101562 "/></g></svg>